<?xml version="1.0" encoding="utf-8" standalone="no"?>
<!DOCTYPE svg PUBLIC "-//W3C//DTD SVG 1.1//EN"
  "http://www.w3.org/Graphics/SVG/1.1/DTD/svg11.dtd">
<svg xmlns:xlink="http://www.w3.org/1999/xlink" width="355.5645pt" height="183.754pt" viewBox="0 0 355.5645 183.754" xmlns="http://www.w3.org/2000/svg" version="1.1">
 <metadata>
  <rdf:RDF xmlns:dc="http://purl.org/dc/elements/1.1/" xmlns:cc="http://creativecommons.org/ns#" xmlns:rdf="http://www.w3.org/1999/02/22-rdf-syntax-ns#">
   <cc:Work>
    <dc:type rdf:resource="http://purl.org/dc/dcmitype/StillImage"/>
    <dc:date>2023-01-10T05:06:02.660034</dc:date>
    <dc:format>image/svg+xml</dc:format>
    <dc:creator>
     <cc:Agent>
      <dc:title>Matplotlib v3.6.2, https://matplotlib.org/</dc:title>
     </cc:Agent>
    </dc:creator>
   </cc:Work>
  </rdf:RDF>
 </metadata>
 <defs>
  <style type="text/css">*{stroke-linejoin: round; stroke-linecap: butt}</style>
 </defs>
 <g id="figure_1">
  <g id="patch_1">
   <path d="M 0 183.754 
L 355.5645 183.754 
L 355.5645 0 
L 0 0 
z
" style="fill: #ffffff"/>
  </g>
  <g id="axes_1">
   <g id="patch_2">
    <path d="M 52.896 107.33 
C 56.953607 107.33 60.845572 105.717895 63.714734 102.848734 
C 66.583895 99.979572 68.196 96.087607 68.196 92.03 
C 68.196 87.972393 66.583895 84.080428 63.714734 81.211266 
C 60.845572 78.342105 56.953607 76.73 52.896 76.73 
C 48.838393 76.73 44.946428 78.342105 42.077266 81.211266 
C 39.208105 84.080428 37.596 87.972393 37.596 92.03 
C 37.596 96.087607 39.208105 99.979572 42.077266 102.848734 
C 44.946428 105.717895 48.838393 107.33 52.896 107.33 
L 52.896 107.33 
z
" clip-path="url(#pdf6a0d8277)" style="fill: none; stroke: #000000; stroke-width: 2; stroke-linejoin: miter"/>
   </g>
   <g id="patch_3">
    <path d="M 328.296 107.33 
C 332.353607 107.33 336.245572 105.717895 339.114734 102.848734 
C 341.983895 99.979572 343.596 96.087607 343.596 92.03 
C 343.596 87.972393 341.983895 84.080428 339.114734 81.211266 
C 336.245572 78.342105 332.353607 76.73 328.296 76.73 
C 324.238393 76.73 320.346428 78.342105 317.477266 81.211266 
C 314.608105 84.080428 312.996 87.972393 312.996 92.03 
C 312.996 96.087607 314.608105 99.979572 317.477266 102.848734 
C 320.346428 105.717895 324.238393 107.33 328.296 107.33 
L 328.296 107.33 
z
" clip-path="url(#pdf6a0d8277)" style="fill: none; stroke: #000000; stroke-width: 2; stroke-linejoin: miter"/>
   </g>
   <g id="patch_4">
    <path d="M 127.409435 78.497951 
C 125.904243 75.029326 123.958147 71.900348 121.649908 69.237649 
C 119.341669 66.57495 116.702851 64.414942 113.84025 62.845041 
C 110.977648 61.275141 107.930408 60.316817 104.821854 60.008854 
C 101.7133 59.70089 98.58594 60.047498 95.566343 61.03465 
C 92.546745 62.021803 89.676201 63.636 87.070885 65.811915 
C 84.465568 67.987829 82.161106 70.695706 80.250762 73.825954 
C 78.340418 76.956203 76.850315 80.466018 75.840759 84.213355 
C 74.831203 87.960691 74.316 91.894305 74.316 95.855 
C 74.316 99.815695 74.831203 103.749309 75.840759 107.496645 
C 76.850315 111.243982 78.340418 114.753797 80.250762 117.884046 
C 82.161106 121.014294 84.465568 123.722171 87.070885 125.898085 
C 89.676201 128.074 92.546745 129.688197 95.566343 130.67535 
C 98.58594 131.662502 101.7133 132.00911 104.821854 131.701146 
C 107.930408 131.393183 110.977648 130.434859 113.84025 128.864959 
C 116.702851 127.295058 119.341669 125.13505 121.649908 122.472351 
C 123.958147 119.809652 125.904243 116.680674 127.409435 113.212049 
" clip-path="url(#pdf6a0d8277)" style="fill: none; stroke: #008000; stroke-width: 2; stroke-linejoin: miter"/>
   </g>
   <g id="patch_5">
    <path d="M 131.250143 85.465511 
L 125.547281 79.873831 
L 127.543755 78.77332 
L 127.396036 78.505337 
L 127.422834 78.490565 
L 127.570553 78.758548 
L 129.567027 77.658037 
z
" clip-path="url(#pdf6a0d8277)" style="fill: #008000; stroke: #008000; stroke-linejoin: miter"/>
   </g>
   <g id="patch_6">
    <path d="M 217.580166 75.812984 
C 215.710125 72.678626 213.386873 69.890393 210.699543 67.555258 
C 208.012213 65.220122 204.995617 63.368333 201.765489 62.070936 
C 198.535361 60.773539 195.133544 60.047341 191.690552 59.920203 
C 188.24756 59.793065 184.807994 60.266634 181.503815 61.32274 
C 178.199636 62.378847 175.073647 64.003811 172.245779 66.135289 
C 169.417911 68.266766 166.924796 70.877147 164.862085 73.866281 
C 162.799373 76.855415 161.193786 80.184581 160.106923 83.726053 
C 159.02006 87.267525 158.466 90.975426 158.466 94.7075 
C 158.466 98.439574 159.02006 102.147475 160.106923 105.688947 
C 161.193786 109.230419 162.799373 112.559585 164.862085 115.548719 
C 166.924796 118.537853 169.417911 121.148234 172.245779 123.279711 
C 175.073647 125.411189 178.199636 127.036153 181.503815 128.09226 
C 184.807994 129.148366 188.24756 129.621935 191.690552 129.494797 
C 195.133544 129.367659 198.535361 128.641461 201.765489 127.344064 
C 204.995617 126.046667 208.012213 124.194878 210.699543 121.859742 
C 213.386873 119.524607 215.710125 116.736374 217.580166 113.602016 
" clip-path="url(#pdf6a0d8277)" style="fill: none; stroke: #008000; stroke-width: 2; stroke-linejoin: miter"/>
   </g>
   <g id="patch_7">
    <path d="M 221.898912 82.494777 
L 215.818831 77.315768 
L 217.733422 76.078281 
L 217.567316 75.821289 
L 217.593015 75.804678 
L 217.759121 76.06167 
L 219.673712 74.824183 
z
" clip-path="url(#pdf6a0d8277)" style="fill: #008000; stroke: #008000; stroke-linejoin: miter"/>
   </g>
   <g id="patch_8">
    <path d="M 303.359435 78.497951 
C 301.854243 75.029326 299.908147 71.900348 297.599908 69.237649 
C 295.291669 66.57495 292.652851 64.414942 289.79025 62.845041 
C 286.927648 61.275141 283.880408 60.316817 280.771854 60.008854 
C 277.6633 59.70089 274.53594 60.047498 271.516343 61.03465 
C 268.496745 62.021803 265.626201 63.636 263.020885 65.811915 
C 260.415568 67.987829 258.111106 70.695706 256.200762 73.825954 
C 254.290418 76.956203 252.800315 80.466018 251.790759 84.213355 
C 250.781203 87.960691 250.266 91.894305 250.266 95.855 
C 250.266 99.815695 250.781203 103.749309 251.790759 107.496645 
C 252.800315 111.243982 254.290418 114.753797 256.200762 117.884046 
C 258.111106 121.014294 260.415568 123.722171 263.020885 125.898085 
C 265.626201 128.074 268.496745 129.688197 271.516343 130.67535 
C 274.53594 131.662502 277.6633 132.00911 280.771854 131.701146 
C 283.880408 131.393183 286.927648 130.434859 289.79025 128.864959 
C 292.652851 127.295058 295.291669 125.13505 297.599908 122.472351 
C 299.908147 119.809652 301.854243 116.680674 303.359435 113.212049 
" clip-path="url(#pdf6a0d8277)" style="fill: none; stroke: #008000; stroke-width: 2; stroke-linejoin: miter"/>
   </g>
   <g id="patch_9">
    <path d="M 307.200143 85.465511 
L 301.497281 79.873831 
L 303.493755 78.77332 
L 303.346036 78.505337 
L 303.372834 78.490565 
L 303.520553 78.758548 
L 305.517027 77.658037 
z
" clip-path="url(#pdf6a0d8277)" style="fill: #008000; stroke: #008000; stroke-linejoin: miter"/>
   </g>
   <g id="patch_10">
    <path d="M 52.896 107.33 
C 56.953607 107.33 60.845572 105.717895 63.714734 102.848734 
C 66.583895 99.979572 68.196 96.087607 68.196 92.03 
C 68.196 87.972393 66.583895 84.080428 63.714734 81.211266 
C 60.845572 78.342105 56.953607 76.73 52.896 76.73 
C 48.838393 76.73 44.946428 78.342105 42.077266 81.211266 
C 39.208105 84.080428 37.596 87.972393 37.596 92.03 
C 37.596 96.087607 39.208105 99.979572 42.077266 102.848734 
C 44.946428 105.717895 48.838393 107.33 52.896 107.33 
L 52.896 107.33 
z
" clip-path="url(#pdf6a0d8277)" style="fill: none; stroke: #000000; stroke-width: 2; stroke-linejoin: miter"/>
   </g>
   <g id="patch_11">
    <path d="M 328.296 107.33 
C 332.353607 107.33 336.245572 105.717895 339.114734 102.848734 
C 341.983895 99.979572 343.596 96.087607 343.596 92.03 
C 343.596 87.972393 341.983895 84.080428 339.114734 81.211266 
C 336.245572 78.342105 332.353607 76.73 328.296 76.73 
C 324.238393 76.73 320.346428 78.342105 317.477266 81.211266 
C 314.608105 84.080428 312.996 87.972393 312.996 92.03 
C 312.996 96.087607 314.608105 99.979572 317.477266 102.848734 
C 320.346428 105.717895 324.238393 107.33 328.296 107.33 
L 328.296 107.33 
z
" clip-path="url(#pdf6a0d8277)" style="fill: none; stroke: #000000; stroke-width: 2; stroke-linejoin: miter"/>
   </g>
   <g id="patch_12">
    <path d="M 127.409435 78.497951 
C 125.904243 75.029326 123.958147 71.900348 121.649908 69.237649 
C 119.341669 66.57495 116.702851 64.414942 113.84025 62.845041 
C 110.977648 61.275141 107.930408 60.316817 104.821854 60.008854 
C 101.7133 59.70089 98.58594 60.047498 95.566343 61.03465 
C 92.546745 62.021803 89.676201 63.636 87.070885 65.811915 
C 84.465568 67.987829 82.161106 70.695706 80.250762 73.825954 
C 78.340418 76.956203 76.850315 80.466018 75.840759 84.213355 
C 74.831203 87.960691 74.316 91.894305 74.316 95.855 
C 74.316 99.815695 74.831203 103.749309 75.840759 107.496645 
C 76.850315 111.243982 78.340418 114.753797 80.250762 117.884046 
C 82.161106 121.014294 84.465568 123.722171 87.070885 125.898085 
C 89.676201 128.074 92.546745 129.688197 95.566343 130.67535 
C 98.58594 131.662502 101.7133 132.00911 104.821854 131.701146 
C 107.930408 131.393183 110.977648 130.434859 113.84025 128.864959 
C 116.702851 127.295058 119.341669 125.13505 121.649908 122.472351 
C 123.958147 119.809652 125.904243 116.680674 127.409435 113.212049 
" clip-path="url(#pdf6a0d8277)" style="fill: none; stroke: #008000; stroke-width: 2; stroke-linejoin: miter"/>
   </g>
   <g id="patch_13">
    <path d="M 131.250143 85.465511 
L 125.547281 79.873831 
L 127.543755 78.77332 
L 127.396036 78.505337 
L 127.422834 78.490565 
L 127.570553 78.758548 
L 129.567027 77.658037 
z
" clip-path="url(#pdf6a0d8277)" style="fill: #008000; stroke: #008000; stroke-linejoin: miter"/>
   </g>
   <g id="patch_14">
    <path d="M 217.580166 75.812984 
C 215.710125 72.678626 213.386873 69.890393 210.699543 67.555258 
C 208.012213 65.220122 204.995617 63.368333 201.765489 62.070936 
C 198.535361 60.773539 195.133544 60.047341 191.690552 59.920203 
C 188.24756 59.793065 184.807994 60.266634 181.503815 61.32274 
C 178.199636 62.378847 175.073647 64.003811 172.245779 66.135289 
C 169.417911 68.266766 166.924796 70.877147 164.862085 73.866281 
C 162.799373 76.855415 161.193786 80.184581 160.106923 83.726053 
C 159.02006 87.267525 158.466 90.975426 158.466 94.7075 
C 158.466 98.439574 159.02006 102.147475 160.106923 105.688947 
C 161.193786 109.230419 162.799373 112.559585 164.862085 115.548719 
C 166.924796 118.537853 169.417911 121.148234 172.245779 123.279711 
C 175.073647 125.411189 178.199636 127.036153 181.503815 128.09226 
C 184.807994 129.148366 188.24756 129.621935 191.690552 129.494797 
C 195.133544 129.367659 198.535361 128.641461 201.765489 127.344064 
C 204.995617 126.046667 208.012213 124.194878 210.699543 121.859742 
C 213.386873 119.524607 215.710125 116.736374 217.580166 113.602016 
" clip-path="url(#pdf6a0d8277)" style="fill: none; stroke: #008000; stroke-width: 2; stroke-linejoin: miter"/>
   </g>
   <g id="patch_15">
    <path d="M 221.898912 82.494777 
L 215.818831 77.315768 
L 217.733422 76.078281 
L 217.567316 75.821289 
L 217.593015 75.804678 
L 217.759121 76.06167 
L 219.673712 74.824183 
z
" clip-path="url(#pdf6a0d8277)" style="fill: #008000; stroke: #008000; stroke-linejoin: miter"/>
   </g>
   <g id="patch_16">
    <path d="M 303.359435 78.497951 
C 301.854243 75.029326 299.908147 71.900348 297.599908 69.237649 
C 295.291669 66.57495 292.652851 64.414942 289.79025 62.845041 
C 286.927648 61.275141 283.880408 60.316817 280.771854 60.008854 
C 277.6633 59.70089 274.53594 60.047498 271.516343 61.03465 
C 268.496745 62.021803 265.626201 63.636 263.020885 65.811915 
C 260.415568 67.987829 258.111106 70.695706 256.200762 73.825954 
C 254.290418 76.956203 252.800315 80.466018 251.790759 84.213355 
C 250.781203 87.960691 250.266 91.894305 250.266 95.855 
C 250.266 99.815695 250.781203 103.749309 251.790759 107.496645 
C 252.800315 111.243982 254.290418 114.753797 256.200762 117.884046 
C 258.111106 121.014294 260.415568 123.722171 263.020885 125.898085 
C 265.626201 128.074 268.496745 129.688197 271.516343 130.67535 
C 274.53594 131.662502 277.6633 132.00911 280.771854 131.701146 
C 283.880408 131.393183 286.927648 130.434859 289.79025 128.864959 
C 292.652851 127.295058 295.291669 125.13505 297.599908 122.472351 
C 299.908147 119.809652 301.854243 116.680674 303.359435 113.212049 
" clip-path="url(#pdf6a0d8277)" style="fill: none; stroke: #008000; stroke-width: 2; stroke-linejoin: miter"/>
   </g>
   <g id="patch_17">
    <path d="M 307.200143 85.465511 
L 301.497281 79.873831 
L 303.493755 78.77332 
L 303.346036 78.505337 
L 303.372834 78.490565 
L 303.520553 78.758548 
L 305.517027 77.658037 
z
" clip-path="url(#pdf6a0d8277)" style="fill: #008000; stroke: #008000; stroke-linejoin: miter"/>
   </g>
   <g id="line2d_1">
    <path d="M 52.896 137.93 
L 52.896 107.33 
L 52.896 107.33 
M 52.896 76.73 
L 52.896 76.73 
L 52.896 46.13 
" clip-path="url(#pdf6a0d8277)" style="fill: none; stroke: #000000; stroke-width: 2; stroke-linecap: round"/>
   </g>
   <g id="line2d_2">
    <path d="M 55.956 99.68 
L 49.836 99.68 
" clip-path="url(#pdf6a0d8277)" style="fill: none; stroke: #000000; stroke-width: 2; stroke-linecap: round"/>
   </g>
   <g id="line2d_3">
    <path d="M 52.896 87.44 
L 52.896 81.32 
" clip-path="url(#pdf6a0d8277)" style="fill: none; stroke: #000000; stroke-width: 2; stroke-linecap: round"/>
   </g>
   <g id="line2d_4">
    <path d="M 55.956 84.38 
L 49.836 84.38 
" clip-path="url(#pdf6a0d8277)" style="fill: none; stroke: #000000; stroke-width: 2; stroke-linecap: round"/>
   </g>
   <g id="line2d_5">
    <path d="M 52.896 46.13 
L 83.496 46.13 
L 86.046 38.48 
L 91.146 53.78 
L 96.246 38.48 
L 101.346 53.78 
L 106.446 38.48 
L 111.546 53.78 
L 114.096 46.13 
L 144.696 46.13 
" clip-path="url(#pdf6a0d8277)" style="fill: none; stroke: #000000; stroke-width: 2; stroke-linecap: round"/>
   </g>
   <g id="line2d_6">
    <path d="M 144.696 46.13 
L 144.696 76.73 
L 152.346 79.28 
L 137.046 84.38 
L 152.346 89.48 
L 137.046 94.58 
L 152.346 99.68 
L 137.046 104.78 
L 144.696 107.33 
L 144.696 137.93 
" clip-path="url(#pdf6a0d8277)" style="fill: none; stroke: #000000; stroke-width: 2; stroke-linecap: round"/>
   </g>
   <g id="line2d_7">
    <path d="M 144.696 137.93 
L 98.796 137.93 
L 52.896 137.93 
" clip-path="url(#pdf6a0d8277)" style="fill: none; stroke: #000000; stroke-width: 2; stroke-linecap: round"/>
   </g>
   <g id="line2d_8">
    <path d="M 144.696 46.13 
L 175.296 46.13 
L 177.846 38.48 
L 182.946 53.78 
L 188.046 38.48 
L 193.146 53.78 
L 198.246 38.48 
L 203.346 53.78 
L 205.896 46.13 
L 236.496 46.13 
" clip-path="url(#pdf6a0d8277)" style="fill: none; stroke: #000000; stroke-width: 2; stroke-linecap: round"/>
   </g>
   <g id="line2d_9">
    <path d="M 236.496 46.13 
L 236.496 76.73 
L 244.146 79.28 
L 228.846 84.38 
L 244.146 89.48 
L 228.846 94.58 
L 244.146 99.68 
L 228.846 104.78 
L 236.496 107.33 
L 236.496 137.93 
" clip-path="url(#pdf6a0d8277)" style="fill: none; stroke: #000000; stroke-width: 2; stroke-linecap: round"/>
   </g>
   <g id="line2d_10">
    <path d="M 236.496 137.93 
L 213.546 137.93 
L 190.596 137.93 
" clip-path="url(#pdf6a0d8277)" style="fill: none; stroke: #000000; stroke-width: 2; stroke-linecap: round"/>
   </g>
   <g id="line2d_11">
    <path d="M 190.596 137.93 
L 167.646 137.93 
L 144.696 137.93 
" clip-path="url(#pdf6a0d8277)" style="fill: none; stroke: #000000; stroke-width: 2; stroke-linecap: round"/>
   </g>
   <g id="line2d_12">
    <path d="M 190.596 137.93 
L 190.596 150.17 
L 182.946 150.17 
L 198.246 150.17 
M 185.241 153.842 
L 195.951 153.842 
M 189.066 157.514 
L 192.126 157.514 
" clip-path="url(#pdf6a0d8277)" style="fill: none; stroke: #000000; stroke-width: 2; stroke-linecap: round"/>
   </g>
   <g id="line2d_13">
    <path d="M 236.496 46.13 
L 267.096 46.13 
L 269.646 38.48 
L 274.746 53.78 
L 279.846 38.48 
L 284.946 53.78 
L 290.046 38.48 
L 295.146 53.78 
L 297.696 46.13 
L 328.296 46.13 
" clip-path="url(#pdf6a0d8277)" style="fill: none; stroke: #000000; stroke-width: 2; stroke-linecap: round"/>
   </g>
   <g id="line2d_14">
    <path d="M 328.296 46.13 
L 328.296 76.73 
L 328.296 76.73 
M 328.296 107.33 
L 328.296 107.33 
L 328.296 137.93 
" clip-path="url(#pdf6a0d8277)" style="fill: none; stroke: #000000; stroke-width: 2; stroke-linecap: round"/>
   </g>
   <g id="line2d_15">
    <path d="M 331.356 99.68 
L 325.236 99.68 
" clip-path="url(#pdf6a0d8277)" style="fill: none; stroke: #000000; stroke-width: 2; stroke-linecap: round"/>
   </g>
   <g id="line2d_16">
    <path d="M 328.296 81.32 
L 328.296 87.44 
" clip-path="url(#pdf6a0d8277)" style="fill: none; stroke: #000000; stroke-width: 2; stroke-linecap: round"/>
   </g>
   <g id="line2d_17">
    <path d="M 331.356 84.38 
L 325.236 84.38 
" clip-path="url(#pdf6a0d8277)" style="fill: none; stroke: #000000; stroke-width: 2; stroke-linecap: round"/>
   </g>
   <g id="line2d_18">
    <path d="M 328.296 137.93 
L 282.396 137.93 
L 236.496 137.93 
" clip-path="url(#pdf6a0d8277)" style="fill: none; stroke: #000000; stroke-width: 2; stroke-linecap: round"/>
   </g>
   <g id="line2d_19">
    <path d="M 52.896 137.93 
L 52.896 107.33 
L 52.896 107.33 
M 52.896 76.73 
L 52.896 76.73 
L 52.896 46.13 
" clip-path="url(#pdf6a0d8277)" style="fill: none; stroke: #000000; stroke-width: 2; stroke-linecap: round"/>
   </g>
   <g id="line2d_20">
    <path d="M 55.956 99.68 
L 49.836 99.68 
" clip-path="url(#pdf6a0d8277)" style="fill: none; stroke: #000000; stroke-width: 2; stroke-linecap: round"/>
   </g>
   <g id="line2d_21">
    <path d="M 52.896 87.44 
L 52.896 81.32 
" clip-path="url(#pdf6a0d8277)" style="fill: none; stroke: #000000; stroke-width: 2; stroke-linecap: round"/>
   </g>
   <g id="line2d_22">
    <path d="M 55.956 84.38 
L 49.836 84.38 
" clip-path="url(#pdf6a0d8277)" style="fill: none; stroke: #000000; stroke-width: 2; stroke-linecap: round"/>
   </g>
   <g id="line2d_23">
    <path d="M 52.896 46.13 
L 83.496 46.13 
L 86.046 38.48 
L 91.146 53.78 
L 96.246 38.48 
L 101.346 53.78 
L 106.446 38.48 
L 111.546 53.78 
L 114.096 46.13 
L 144.696 46.13 
" clip-path="url(#pdf6a0d8277)" style="fill: none; stroke: #000000; stroke-width: 2; stroke-linecap: round"/>
   </g>
   <g id="line2d_24">
    <path d="M 144.696 46.13 
L 144.696 76.73 
L 152.346 79.28 
L 137.046 84.38 
L 152.346 89.48 
L 137.046 94.58 
L 152.346 99.68 
L 137.046 104.78 
L 144.696 107.33 
L 144.696 137.93 
" clip-path="url(#pdf6a0d8277)" style="fill: none; stroke: #000000; stroke-width: 2; stroke-linecap: round"/>
   </g>
   <g id="line2d_25">
    <path d="M 144.696 137.93 
L 98.796 137.93 
L 52.896 137.93 
" clip-path="url(#pdf6a0d8277)" style="fill: none; stroke: #000000; stroke-width: 2; stroke-linecap: round"/>
   </g>
   <g id="line2d_26">
    <path d="M 144.696 46.13 
L 175.296 46.13 
L 177.846 38.48 
L 182.946 53.78 
L 188.046 38.48 
L 193.146 53.78 
L 198.246 38.48 
L 203.346 53.78 
L 205.896 46.13 
L 236.496 46.13 
" clip-path="url(#pdf6a0d8277)" style="fill: none; stroke: #000000; stroke-width: 2; stroke-linecap: round"/>
   </g>
   <g id="line2d_27">
    <path d="M 236.496 46.13 
L 236.496 76.73 
L 244.146 79.28 
L 228.846 84.38 
L 244.146 89.48 
L 228.846 94.58 
L 244.146 99.68 
L 228.846 104.78 
L 236.496 107.33 
L 236.496 137.93 
" clip-path="url(#pdf6a0d8277)" style="fill: none; stroke: #000000; stroke-width: 2; stroke-linecap: round"/>
   </g>
   <g id="line2d_28">
    <path d="M 236.496 137.93 
L 213.546 137.93 
L 190.596 137.93 
" clip-path="url(#pdf6a0d8277)" style="fill: none; stroke: #000000; stroke-width: 2; stroke-linecap: round"/>
   </g>
   <g id="line2d_29">
    <path d="M 190.596 137.93 
L 167.646 137.93 
L 144.696 137.93 
" clip-path="url(#pdf6a0d8277)" style="fill: none; stroke: #000000; stroke-width: 2; stroke-linecap: round"/>
   </g>
   <g id="line2d_30">
    <path d="M 190.596 137.93 
L 190.596 150.17 
L 182.946 150.17 
L 198.246 150.17 
M 185.241 153.842 
L 195.951 153.842 
M 189.066 157.514 
L 192.126 157.514 
" clip-path="url(#pdf6a0d8277)" style="fill: none; stroke: #000000; stroke-width: 2; stroke-linecap: round"/>
   </g>
   <g id="line2d_31">
    <path d="M 236.496 46.13 
L 267.096 46.13 
L 269.646 38.48 
L 274.746 53.78 
L 279.846 38.48 
L 284.946 53.78 
L 290.046 38.48 
L 295.146 53.78 
L 297.696 46.13 
L 328.296 46.13 
" clip-path="url(#pdf6a0d8277)" style="fill: none; stroke: #000000; stroke-width: 2; stroke-linecap: round"/>
   </g>
   <g id="line2d_32">
    <path d="M 328.296 46.13 
L 328.296 76.73 
L 328.296 76.73 
M 328.296 107.33 
L 328.296 107.33 
L 328.296 137.93 
" clip-path="url(#pdf6a0d8277)" style="fill: none; stroke: #000000; stroke-width: 2; stroke-linecap: round"/>
   </g>
   <g id="line2d_33">
    <path d="M 331.356 99.68 
L 325.236 99.68 
" clip-path="url(#pdf6a0d8277)" style="fill: none; stroke: #000000; stroke-width: 2; stroke-linecap: round"/>
   </g>
   <g id="line2d_34">
    <path d="M 328.296 81.32 
L 328.296 87.44 
" clip-path="url(#pdf6a0d8277)" style="fill: none; stroke: #000000; stroke-width: 2; stroke-linecap: round"/>
   </g>
   <g id="line2d_35">
    <path d="M 331.356 84.38 
L 325.236 84.38 
" clip-path="url(#pdf6a0d8277)" style="fill: none; stroke: #000000; stroke-width: 2; stroke-linecap: round"/>
   </g>
   <g id="line2d_36">
    <path d="M 328.296 137.93 
L 282.396 137.93 
L 236.496 137.93 
" clip-path="url(#pdf6a0d8277)" style="fill: none; stroke: #000000; stroke-width: 2; stroke-linecap: round"/>
   </g>
   <g id="text_1">
    <g clip-path="url(#pdf6a0d8277)">
     <!-- $V_{S1}$ -->
     <g transform="translate(20.851 90.262266) scale(0.085 -0.085)">
      <defs>
       <path id="DejaVuSans-Oblique-56" d="M 1319 0 
L 500 4666 
L 1119 4666 
L 1797 653 
L 4063 4666 
L 4750 4666 
L 2053 0 
L 1319 0 
z
" transform="scale(0.015625)"/>
       <path id="DejaVuSans-Oblique-53" d="M 3859 4513 
L 3738 3897 
Q 3422 4066 3111 4152 
Q 2800 4238 2509 4238 
Q 1944 4238 1609 3991 
Q 1275 3744 1275 3334 
Q 1275 3109 1398 2989 
Q 1522 2869 2034 2731 
L 2413 2638 
Q 3053 2472 3303 2217 
Q 3553 1963 3553 1503 
Q 3553 797 2998 353 
Q 2444 -91 1538 -91 
Q 1166 -91 791 -17 
Q 416 56 38 206 
L 166 856 
Q 513 641 861 531 
Q 1209 422 1556 422 
Q 2147 422 2503 684 
Q 2859 947 2859 1369 
Q 2859 1650 2717 1795 
Q 2575 1941 2106 2059 
L 1728 2156 
Q 1081 2325 845 2545 
Q 609 2766 609 3163 
Q 609 3859 1145 4304 
Q 1681 4750 2541 4750 
Q 2875 4750 3203 4690 
Q 3531 4631 3859 4513 
z
" transform="scale(0.015625)"/>
       <path id="DejaVuSans-31" d="M 794 531 
L 1825 531 
L 1825 4091 
L 703 3866 
L 703 4441 
L 1819 4666 
L 2450 4666 
L 2450 531 
L 3481 531 
L 3481 0 
L 794 0 
L 794 531 
z
" transform="scale(0.015625)"/>
      </defs>
      <use xlink:href="#DejaVuSans-Oblique-56" transform="translate(0 0.09375)"/>
      <use xlink:href="#DejaVuSans-Oblique-53" transform="translate(68.408203 -16.3125) scale(0.7)"/>
      <use xlink:href="#DejaVuSans-31" transform="translate(112.841797 -16.3125) scale(0.7)"/>
     </g>
    </g>
   </g>
   <g id="text_2">
    <g clip-path="url(#pdf6a0d8277)">
     <!-- 12V -->
     <g style="fill: #0000ff" transform="translate(17.581156 98.488672) scale(0.085 -0.085)">
      <defs>
       <path id="DejaVuSerif-31" d="M 909 0 
L 909 331 
L 1722 331 
L 1722 4213 
L 781 3603 
L 781 4013 
L 1919 4750 
L 2350 4750 
L 2350 331 
L 3163 331 
L 3163 0 
L 909 0 
z
" transform="scale(0.015625)"/>
       <path id="DejaVuSerif-32" d="M 819 3553 
L 469 3553 
L 469 4384 
Q 803 4563 1142 4656 
Q 1481 4750 1806 4750 
Q 2534 4750 2956 4397 
Q 3378 4044 3378 3438 
Q 3378 2753 2422 1800 
Q 2347 1728 2309 1691 
L 1131 513 
L 3078 513 
L 3078 1088 
L 3444 1088 
L 3444 0 
L 434 0 
L 434 341 
L 1850 1753 
Q 2319 2222 2519 2614 
Q 2719 3006 2719 3438 
Q 2719 3909 2473 4175 
Q 2228 4441 1797 4441 
Q 1350 4441 1106 4219 
Q 863 3997 819 3553 
z
" transform="scale(0.015625)"/>
       <path id="DejaVuSerif-56" d="M 1119 4331 
L 2497 750 
L 3872 4331 
L 3347 4331 
L 3347 4666 
L 4716 4666 
L 4716 4331 
L 4263 4331 
L 2597 0 
L 2059 0 
L 403 4331 
L -63 4331 
L -63 4666 
L 1638 4666 
L 1638 4331 
L 1119 4331 
z
" transform="scale(0.015625)"/>
      </defs>
      <use xlink:href="#DejaVuSerif-31"/>
      <use xlink:href="#DejaVuSerif-32" x="63.623047"/>
      <use xlink:href="#DejaVuSerif-56" x="127.246094"/>
     </g>
    </g>
   </g>
   <g id="text_3">
    <g clip-path="url(#pdf6a0d8277)">
     <!-- $R_1$ -->
     <g transform="translate(93.8235 27.532266) scale(0.085 -0.085)">
      <defs>
       <path id="DejaVuSans-Oblique-52" d="M 1613 4147 
L 1294 2491 
L 2106 2491 
Q 2584 2491 2879 2755 
Q 3175 3019 3175 3444 
Q 3175 3784 2976 3965 
Q 2778 4147 2406 4147 
L 1613 4147 
z
M 2772 2241 
Q 2972 2194 3105 2009 
Q 3238 1825 3413 1275 
L 3809 0 
L 3144 0 
L 2778 1197 
Q 2638 1659 2453 1815 
Q 2269 1972 1888 1972 
L 1191 1972 
L 806 0 
L 172 0 
L 1081 4666 
L 2503 4666 
Q 3150 4666 3495 4373 
Q 3841 4081 3841 3531 
Q 3841 3044 3547 2687 
Q 3253 2331 2772 2241 
z
" transform="scale(0.015625)"/>
      </defs>
      <use xlink:href="#DejaVuSans-Oblique-52" transform="translate(0 0.09375)"/>
      <use xlink:href="#DejaVuSans-31" transform="translate(69.482422 -16.3125) scale(0.7)"/>
     </g>
    </g>
   </g>
   <g id="text_4">
    <g clip-path="url(#pdf6a0d8277)">
     <!-- 500Ω -->
     <g style="fill: #0000ff" transform="translate(87.160297 35.758672) scale(0.085 -0.085)">
      <defs>
       <path id="DejaVuSerif-35" d="M 3219 4666 
L 3219 4153 
L 1081 4153 
L 1081 2816 
Q 1244 2928 1461 2984 
Q 1678 3041 1947 3041 
Q 2703 3041 3140 2622 
Q 3578 2203 3578 1478 
Q 3578 738 3136 323 
Q 2694 -91 1894 -91 
Q 1572 -91 1234 -12 
Q 897 66 544 225 
L 544 1131 
L 897 1131 
Q 925 688 1179 453 
Q 1434 219 1894 219 
Q 2388 219 2653 544 
Q 2919 869 2919 1478 
Q 2919 2084 2655 2407 
Q 2391 2731 1894 2731 
Q 1613 2731 1398 2631 
Q 1184 2531 1019 2322 
L 750 2322 
L 750 4666 
L 3219 4666 
z
" transform="scale(0.015625)"/>
       <path id="DejaVuSerif-30" d="M 2034 219 
Q 2513 219 2750 744 
Q 2988 1269 2988 2328 
Q 2988 3391 2750 3916 
Q 2513 4441 2034 4441 
Q 1556 4441 1318 3916 
Q 1081 3391 1081 2328 
Q 1081 1269 1318 744 
Q 1556 219 2034 219 
z
M 2034 -91 
Q 1275 -91 848 546 
Q 422 1184 422 2328 
Q 422 3475 848 4112 
Q 1275 4750 2034 4750 
Q 2797 4750 3222 4112 
Q 3647 3475 3647 2328 
Q 3647 1184 3222 546 
Q 2797 -91 2034 -91 
z
" transform="scale(0.015625)"/>
       <path id="DejaVuSerif-3a9" d="M 3500 513 
L 4550 513 
L 4550 941 
L 4916 941 
L 4916 0 
L 3066 0 
L 3066 569 
Q 3628 788 3917 1273 
Q 4206 1759 4206 2484 
Q 4206 3356 3778 3886 
Q 3350 4416 2656 4416 
Q 1963 4416 1534 3886 
Q 1106 3356 1106 2484 
Q 1106 1756 1393 1272 
Q 1681 788 2241 569 
L 2241 0 
L 397 0 
L 397 941 
L 763 941 
L 763 513 
L 1806 513 
Q 1153 784 772 1334 
Q 391 1884 391 2553 
Q 391 3025 570 3434 
Q 750 3844 1094 4166 
Q 1403 4450 1803 4600 
Q 2203 4750 2656 4750 
Q 3109 4750 3506 4601 
Q 3903 4453 4213 4166 
Q 4559 3844 4740 3433 
Q 4922 3022 4922 2553 
Q 4922 1888 4539 1336 
Q 4156 784 3500 513 
z
" transform="scale(0.015625)"/>
      </defs>
      <use xlink:href="#DejaVuSerif-35"/>
      <use xlink:href="#DejaVuSerif-30" x="63.623047"/>
      <use xlink:href="#DejaVuSerif-30" x="127.246094"/>
      <use xlink:href="#DejaVuSerif-3a9" x="190.869141"/>
     </g>
    </g>
   </g>
   <g id="text_5">
    <g clip-path="url(#pdf6a0d8277)">
     <!-- $R_4$ -->
     <g transform="translate(124.041 90.262266) scale(0.085 -0.085)">
      <defs>
       <path id="DejaVuSans-34" d="M 2419 4116 
L 825 1625 
L 2419 1625 
L 2419 4116 
z
M 2253 4666 
L 3047 4666 
L 3047 1625 
L 3713 1625 
L 3713 1100 
L 3047 1100 
L 3047 0 
L 2419 0 
L 2419 1100 
L 313 1100 
L 313 1709 
L 2253 4666 
z
" transform="scale(0.015625)"/>
      </defs>
      <use xlink:href="#DejaVuSans-Oblique-52" transform="translate(0 0.09375)"/>
      <use xlink:href="#DejaVuSans-34" transform="translate(69.482422 -16.3125) scale(0.7)"/>
     </g>
    </g>
   </g>
   <g id="text_6">
    <g clip-path="url(#pdf6a0d8277)">
     <!-- 1kΩ -->
     <g style="fill: #0000ff" transform="translate(116.380375 98.488672) scale(0.085 -0.085)">
      <defs>
       <path id="DejaVuSerif-6b" d="M 1831 0 
L 219 0 
L 219 331 
L 738 331 
L 738 4531 
L 184 4531 
L 184 4863 
L 1313 4863 
L 1313 1697 
L 2713 2988 
L 2234 2988 
L 2234 3322 
L 3738 3322 
L 3738 2988 
L 3169 2988 
L 2181 2075 
L 3444 331 
L 3922 331 
L 3922 0 
L 2284 0 
L 2284 331 
L 2759 331 
L 1766 1697 
L 1313 1275 
L 1313 331 
L 1831 331 
L 1831 0 
z
" transform="scale(0.015625)"/>
      </defs>
      <use xlink:href="#DejaVuSerif-31"/>
      <use xlink:href="#DejaVuSerif-6b" x="63.623047"/>
      <use xlink:href="#DejaVuSerif-3a9" x="124.21875"/>
     </g>
    </g>
   </g>
   <g id="text_7">
    <g clip-path="url(#pdf6a0d8277)">
     <!-- $R_2$ -->
     <g transform="translate(185.6235 27.532266) scale(0.085 -0.085)">
      <defs>
       <path id="DejaVuSans-32" d="M 1228 531 
L 3431 531 
L 3431 0 
L 469 0 
L 469 531 
Q 828 903 1448 1529 
Q 2069 2156 2228 2338 
Q 2531 2678 2651 2914 
Q 2772 3150 2772 3378 
Q 2772 3750 2511 3984 
Q 2250 4219 1831 4219 
Q 1534 4219 1204 4116 
Q 875 4013 500 3803 
L 500 4441 
Q 881 4594 1212 4672 
Q 1544 4750 1819 4750 
Q 2544 4750 2975 4387 
Q 3406 4025 3406 3419 
Q 3406 3131 3298 2873 
Q 3191 2616 2906 2266 
Q 2828 2175 2409 1742 
Q 1991 1309 1228 531 
z
" transform="scale(0.015625)"/>
      </defs>
      <use xlink:href="#DejaVuSans-Oblique-52" transform="translate(0 0.09375)"/>
      <use xlink:href="#DejaVuSans-32" transform="translate(69.482422 -16.3125) scale(0.7)"/>
     </g>
    </g>
   </g>
   <g id="text_8">
    <g clip-path="url(#pdf6a0d8277)">
     <!-- 680Ω -->
     <g style="fill: #0000ff" transform="translate(178.960297 35.758672) scale(0.085 -0.085)">
      <defs>
       <path id="DejaVuSerif-36" d="M 2094 219 
Q 2534 219 2771 542 
Q 3009 866 3009 1472 
Q 3009 2078 2771 2401 
Q 2534 2725 2094 2725 
Q 1647 2725 1412 2412 
Q 1178 2100 1178 1509 
Q 1178 888 1415 553 
Q 1653 219 2094 219 
z
M 1075 2569 
Q 1288 2803 1556 2918 
Q 1825 3034 2163 3034 
Q 2859 3034 3264 2615 
Q 3669 2197 3669 1472 
Q 3669 763 3233 336 
Q 2797 -91 2069 -91 
Q 1278 -91 853 498 
Q 428 1088 428 2181 
Q 428 3406 931 4078 
Q 1434 4750 2350 4750 
Q 2597 4750 2869 4703 
Q 3141 4656 3425 4563 
L 3425 3794 
L 3072 3794 
Q 3034 4109 2831 4275 
Q 2628 4441 2284 4441 
Q 1678 4441 1381 3981 
Q 1084 3522 1075 2569 
z
" transform="scale(0.015625)"/>
       <path id="DejaVuSerif-38" d="M 2981 1275 
Q 2981 1775 2732 2051 
Q 2484 2328 2034 2328 
Q 1584 2328 1336 2051 
Q 1088 1775 1088 1275 
Q 1088 772 1336 495 
Q 1584 219 2034 219 
Q 2484 219 2732 495 
Q 2981 772 2981 1275 
z
M 2853 3541 
Q 2853 3966 2637 4203 
Q 2422 4441 2034 4441 
Q 1650 4441 1433 4203 
Q 1216 3966 1216 3541 
Q 1216 3113 1433 2875 
Q 1650 2638 2034 2638 
Q 2422 2638 2637 2875 
Q 2853 3113 2853 3541 
z
M 2516 2484 
Q 3047 2413 3344 2092 
Q 3641 1772 3641 1275 
Q 3641 619 3225 264 
Q 2809 -91 2034 -91 
Q 1263 -91 845 264 
Q 428 619 428 1275 
Q 428 1772 725 2092 
Q 1022 2413 1556 2484 
Q 1084 2569 832 2842 
Q 581 3116 581 3541 
Q 581 4103 968 4426 
Q 1356 4750 2034 4750 
Q 2713 4750 3100 4426 
Q 3488 4103 3488 3541 
Q 3488 3116 3236 2842 
Q 2984 2569 2516 2484 
z
" transform="scale(0.015625)"/>
      </defs>
      <use xlink:href="#DejaVuSerif-36"/>
      <use xlink:href="#DejaVuSerif-38" x="63.623047"/>
      <use xlink:href="#DejaVuSerif-30" x="127.246094"/>
      <use xlink:href="#DejaVuSerif-3a9" x="190.869141"/>
     </g>
    </g>
   </g>
   <g id="text_9">
    <g clip-path="url(#pdf6a0d8277)">
     <!-- $R_5$ -->
     <g transform="translate(215.841 90.262266) scale(0.085 -0.085)">
      <defs>
       <path id="DejaVuSans-35" d="M 691 4666 
L 3169 4666 
L 3169 4134 
L 1269 4134 
L 1269 2991 
Q 1406 3038 1543 3061 
Q 1681 3084 1819 3084 
Q 2600 3084 3056 2656 
Q 3513 2228 3513 1497 
Q 3513 744 3044 326 
Q 2575 -91 1722 -91 
Q 1428 -91 1123 -41 
Q 819 9 494 109 
L 494 744 
Q 775 591 1075 516 
Q 1375 441 1709 441 
Q 2250 441 2565 725 
Q 2881 1009 2881 1497 
Q 2881 1984 2565 2268 
Q 2250 2553 1709 2553 
Q 1456 2553 1204 2497 
Q 953 2441 691 2322 
L 691 4666 
z
" transform="scale(0.015625)"/>
      </defs>
      <use xlink:href="#DejaVuSans-Oblique-52" transform="translate(0 0.09375)"/>
      <use xlink:href="#DejaVuSans-35" transform="translate(69.482422 -16.3125) scale(0.7)"/>
     </g>
    </g>
   </g>
   <g id="text_10">
    <g clip-path="url(#pdf6a0d8277)">
     <!-- 1kΩ -->
     <g style="fill: #0000ff" transform="translate(208.180375 98.488672) scale(0.085 -0.085)">
      <use xlink:href="#DejaVuSerif-31"/>
      <use xlink:href="#DejaVuSerif-6b" x="63.623047"/>
      <use xlink:href="#DejaVuSerif-3a9" x="124.21875"/>
     </g>
    </g>
   </g>
   <g id="text_11">
    <g clip-path="url(#pdf6a0d8277)">
     <!-- GND -->
     <g transform="translate(180.074594 167.032672) scale(0.085 -0.085)">
      <defs>
       <path id="DejaVuSerif-47" d="M 4097 3272 
Q 3988 3856 3641 4136 
Q 3294 4416 2675 4416 
Q 1869 4416 1472 3897 
Q 1075 3378 1075 2328 
Q 1075 1300 1484 772 
Q 1894 244 2688 244 
Q 3041 244 3362 331 
Q 3684 419 3975 594 
L 3975 1797 
L 3097 1797 
L 3097 2131 
L 4609 2131 
L 4609 391 
Q 4194 150 3714 29 
Q 3234 -91 2688 -91 
Q 1631 -91 995 570 
Q 359 1231 359 2328 
Q 359 3434 996 4092 
Q 1634 4750 2713 4750 
Q 3113 4750 3539 4658 
Q 3966 4566 4447 4378 
L 4447 3272 
L 4097 3272 
z
" transform="scale(0.015625)"/>
       <path id="DejaVuSerif-4e" d="M 313 0 
L 313 331 
L 941 331 
L 941 4331 
L 313 4331 
L 313 4666 
L 1509 4666 
L 4306 984 
L 4306 4331 
L 3681 4331 
L 3681 4666 
L 5319 4666 
L 5319 4331 
L 4691 4331 
L 4691 -91 
L 4313 -91 
L 1325 3841 
L 1325 331 
L 1953 331 
L 1953 0 
L 313 0 
z
" transform="scale(0.015625)"/>
       <path id="DejaVuSerif-44" d="M 1581 331 
L 2163 331 
Q 3072 331 3558 850 
Q 4044 1369 4044 2338 
Q 4044 3306 3559 3818 
Q 3075 4331 2163 4331 
L 1581 4331 
L 1581 331 
z
M 353 0 
L 353 331 
L 947 331 
L 947 4331 
L 353 4331 
L 353 4666 
L 2209 4666 
Q 3416 4666 4089 4050 
Q 4763 3434 4763 2338 
Q 4763 1238 4088 619 
Q 3413 0 2209 0 
L 353 0 
z
" transform="scale(0.015625)"/>
      </defs>
      <use xlink:href="#DejaVuSerif-47"/>
      <use xlink:href="#DejaVuSerif-4e" x="79.882812"/>
      <use xlink:href="#DejaVuSerif-44" x="167.382812"/>
     </g>
    </g>
   </g>
   <g id="text_12">
    <g clip-path="url(#pdf6a0d8277)">
     <!-- $R_3$ -->
     <g transform="translate(277.4235 27.532266) scale(0.085 -0.085)">
      <defs>
       <path id="DejaVuSans-33" d="M 2597 2516 
Q 3050 2419 3304 2112 
Q 3559 1806 3559 1356 
Q 3559 666 3084 287 
Q 2609 -91 1734 -91 
Q 1441 -91 1130 -33 
Q 819 25 488 141 
L 488 750 
Q 750 597 1062 519 
Q 1375 441 1716 441 
Q 2309 441 2620 675 
Q 2931 909 2931 1356 
Q 2931 1769 2642 2001 
Q 2353 2234 1838 2234 
L 1294 2234 
L 1294 2753 
L 1863 2753 
Q 2328 2753 2575 2939 
Q 2822 3125 2822 3475 
Q 2822 3834 2567 4026 
Q 2313 4219 1838 4219 
Q 1578 4219 1281 4162 
Q 984 4106 628 3988 
L 628 4550 
Q 988 4650 1302 4700 
Q 1616 4750 1894 4750 
Q 2613 4750 3031 4423 
Q 3450 4097 3450 3541 
Q 3450 3153 3228 2886 
Q 3006 2619 2597 2516 
z
" transform="scale(0.015625)"/>
      </defs>
      <use xlink:href="#DejaVuSans-Oblique-52" transform="translate(0 0.09375)"/>
      <use xlink:href="#DejaVuSans-33" transform="translate(69.482422 -16.3125) scale(0.7)"/>
     </g>
    </g>
   </g>
   <g id="text_13">
    <g clip-path="url(#pdf6a0d8277)">
     <!-- 500Ω -->
     <g style="fill: #0000ff" transform="translate(270.760297 35.758672) scale(0.085 -0.085)">
      <use xlink:href="#DejaVuSerif-35"/>
      <use xlink:href="#DejaVuSerif-30" x="63.623047"/>
      <use xlink:href="#DejaVuSerif-30" x="127.246094"/>
      <use xlink:href="#DejaVuSerif-3a9" x="190.869141"/>
     </g>
    </g>
   </g>
   <g id="text_14">
    <g clip-path="url(#pdf6a0d8277)">
     <!-- $V_{S2}$ -->
     <g transform="translate(296.251 90.262266) scale(0.085 -0.085)">
      <use xlink:href="#DejaVuSans-Oblique-56" transform="translate(0 0.09375)"/>
      <use xlink:href="#DejaVuSans-Oblique-53" transform="translate(68.408203 -16.3125) scale(0.7)"/>
      <use xlink:href="#DejaVuSans-32" transform="translate(112.841797 -16.3125) scale(0.7)"/>
     </g>
    </g>
   </g>
   <g id="text_15">
    <g clip-path="url(#pdf6a0d8277)">
     <!-- 9V -->
     <g style="fill: #0000ff" transform="translate(298.389281 98.488672) scale(0.085 -0.085)">
      <defs>
       <path id="DejaVuSerif-39" d="M 2994 2091 
Q 2784 1856 2512 1740 
Q 2241 1625 1900 1625 
Q 1206 1625 804 2044 
Q 403 2463 403 3188 
Q 403 3897 839 4323 
Q 1275 4750 2003 4750 
Q 2794 4750 3217 4161 
Q 3641 3572 3641 2478 
Q 3641 1253 3137 581 
Q 2634 -91 1722 -91 
Q 1475 -91 1203 -44 
Q 931 3 647 97 
L 647 872 
L 997 872 
Q 1038 556 1241 387 
Q 1444 219 1784 219 
Q 2391 219 2687 676 
Q 2984 1134 2994 2091 
z
M 1978 4441 
Q 1534 4441 1298 4117 
Q 1063 3794 1063 3188 
Q 1063 2581 1298 2256 
Q 1534 1931 1978 1931 
Q 2422 1931 2658 2245 
Q 2894 2559 2894 3150 
Q 2894 3772 2656 4106 
Q 2419 4441 1978 4441 
z
" transform="scale(0.015625)"/>
      </defs>
      <use xlink:href="#DejaVuSerif-39"/>
      <use xlink:href="#DejaVuSerif-56" x="63.623047"/>
     </g>
    </g>
   </g>
   <g id="text_16">
    <g clip-path="url(#pdf6a0d8277)">
     <!-- $I_1$ -->
     <g style="fill: #008000" transform="translate(99.3485 98.200469) scale(0.085 -0.085)">
      <defs>
       <path id="DejaVuSans-Oblique-49" d="M 1081 4666 
L 1716 4666 
L 806 0 
L 172 0 
L 1081 4666 
z
" transform="scale(0.015625)"/>
      </defs>
      <use xlink:href="#DejaVuSans-Oblique-49" transform="translate(0 0.09375)"/>
      <use xlink:href="#DejaVuSans-31" transform="translate(29.492188 -16.3125) scale(0.7)"/>
     </g>
    </g>
   </g>
   <g id="text_17">
    <g clip-path="url(#pdf6a0d8277)">
     <!-- $I_2$ -->
     <g style="fill: #008000" transform="translate(187.3235 97.052969) scale(0.085 -0.085)">
      <use xlink:href="#DejaVuSans-Oblique-49" transform="translate(0 0.09375)"/>
      <use xlink:href="#DejaVuSans-32" transform="translate(29.492188 -16.3125) scale(0.7)"/>
     </g>
    </g>
   </g>
   <g id="text_18">
    <g clip-path="url(#pdf6a0d8277)">
     <!-- $I_3$ -->
     <g style="fill: #008000" transform="translate(275.2985 98.200469) scale(0.085 -0.085)">
      <use xlink:href="#DejaVuSans-Oblique-49" transform="translate(0 0.09375)"/>
      <use xlink:href="#DejaVuSans-33" transform="translate(29.492188 -16.3125) scale(0.7)"/>
     </g>
    </g>
   </g>
   <g id="text_19">
    <g clip-path="url(#pdf6a0d8277)">
     <!-- $V_{S1}$ -->
     <g transform="translate(20.851 90.262266) scale(0.085 -0.085)">
      <use xlink:href="#DejaVuSans-Oblique-56" transform="translate(0 0.09375)"/>
      <use xlink:href="#DejaVuSans-Oblique-53" transform="translate(68.408203 -16.3125) scale(0.7)"/>
      <use xlink:href="#DejaVuSans-31" transform="translate(112.841797 -16.3125) scale(0.7)"/>
     </g>
    </g>
   </g>
   <g id="text_20">
    <g clip-path="url(#pdf6a0d8277)">
     <!-- 12V -->
     <g style="fill: #0000ff" transform="translate(17.581156 98.488672) scale(0.085 -0.085)">
      <use xlink:href="#DejaVuSerif-31"/>
      <use xlink:href="#DejaVuSerif-32" x="63.623047"/>
      <use xlink:href="#DejaVuSerif-56" x="127.246094"/>
     </g>
    </g>
   </g>
   <g id="text_21">
    <g clip-path="url(#pdf6a0d8277)">
     <!-- $R_1$ -->
     <g transform="translate(93.8235 27.532266) scale(0.085 -0.085)">
      <use xlink:href="#DejaVuSans-Oblique-52" transform="translate(0 0.09375)"/>
      <use xlink:href="#DejaVuSans-31" transform="translate(69.482422 -16.3125) scale(0.7)"/>
     </g>
    </g>
   </g>
   <g id="text_22">
    <g clip-path="url(#pdf6a0d8277)">
     <!-- 500Ω -->
     <g style="fill: #0000ff" transform="translate(87.160297 35.758672) scale(0.085 -0.085)">
      <use xlink:href="#DejaVuSerif-35"/>
      <use xlink:href="#DejaVuSerif-30" x="63.623047"/>
      <use xlink:href="#DejaVuSerif-30" x="127.246094"/>
      <use xlink:href="#DejaVuSerif-3a9" x="190.869141"/>
     </g>
    </g>
   </g>
   <g id="text_23">
    <g clip-path="url(#pdf6a0d8277)">
     <!-- $R_4$ -->
     <g transform="translate(124.041 90.262266) scale(0.085 -0.085)">
      <use xlink:href="#DejaVuSans-Oblique-52" transform="translate(0 0.09375)"/>
      <use xlink:href="#DejaVuSans-34" transform="translate(69.482422 -16.3125) scale(0.7)"/>
     </g>
    </g>
   </g>
   <g id="text_24">
    <g clip-path="url(#pdf6a0d8277)">
     <!-- 1kΩ -->
     <g style="fill: #0000ff" transform="translate(116.380375 98.488672) scale(0.085 -0.085)">
      <use xlink:href="#DejaVuSerif-31"/>
      <use xlink:href="#DejaVuSerif-6b" x="63.623047"/>
      <use xlink:href="#DejaVuSerif-3a9" x="124.21875"/>
     </g>
    </g>
   </g>
   <g id="text_25">
    <g clip-path="url(#pdf6a0d8277)">
     <!-- $R_2$ -->
     <g transform="translate(185.6235 27.532266) scale(0.085 -0.085)">
      <use xlink:href="#DejaVuSans-Oblique-52" transform="translate(0 0.09375)"/>
      <use xlink:href="#DejaVuSans-32" transform="translate(69.482422 -16.3125) scale(0.7)"/>
     </g>
    </g>
   </g>
   <g id="text_26">
    <g clip-path="url(#pdf6a0d8277)">
     <!-- 680Ω -->
     <g style="fill: #0000ff" transform="translate(178.960297 35.758672) scale(0.085 -0.085)">
      <use xlink:href="#DejaVuSerif-36"/>
      <use xlink:href="#DejaVuSerif-38" x="63.623047"/>
      <use xlink:href="#DejaVuSerif-30" x="127.246094"/>
      <use xlink:href="#DejaVuSerif-3a9" x="190.869141"/>
     </g>
    </g>
   </g>
   <g id="text_27">
    <g clip-path="url(#pdf6a0d8277)">
     <!-- $R_5$ -->
     <g transform="translate(215.841 90.262266) scale(0.085 -0.085)">
      <use xlink:href="#DejaVuSans-Oblique-52" transform="translate(0 0.09375)"/>
      <use xlink:href="#DejaVuSans-35" transform="translate(69.482422 -16.3125) scale(0.7)"/>
     </g>
    </g>
   </g>
   <g id="text_28">
    <g clip-path="url(#pdf6a0d8277)">
     <!-- 1kΩ -->
     <g style="fill: #0000ff" transform="translate(208.180375 98.488672) scale(0.085 -0.085)">
      <use xlink:href="#DejaVuSerif-31"/>
      <use xlink:href="#DejaVuSerif-6b" x="63.623047"/>
      <use xlink:href="#DejaVuSerif-3a9" x="124.21875"/>
     </g>
    </g>
   </g>
   <g id="text_29">
    <g clip-path="url(#pdf6a0d8277)">
     <!-- GND -->
     <g transform="translate(180.074594 167.032672) scale(0.085 -0.085)">
      <use xlink:href="#DejaVuSerif-47"/>
      <use xlink:href="#DejaVuSerif-4e" x="79.882812"/>
      <use xlink:href="#DejaVuSerif-44" x="167.382812"/>
     </g>
    </g>
   </g>
   <g id="text_30">
    <g clip-path="url(#pdf6a0d8277)">
     <!-- $R_3$ -->
     <g transform="translate(277.4235 27.532266) scale(0.085 -0.085)">
      <use xlink:href="#DejaVuSans-Oblique-52" transform="translate(0 0.09375)"/>
      <use xlink:href="#DejaVuSans-33" transform="translate(69.482422 -16.3125) scale(0.7)"/>
     </g>
    </g>
   </g>
   <g id="text_31">
    <g clip-path="url(#pdf6a0d8277)">
     <!-- 500Ω -->
     <g style="fill: #0000ff" transform="translate(270.760297 35.758672) scale(0.085 -0.085)">
      <use xlink:href="#DejaVuSerif-35"/>
      <use xlink:href="#DejaVuSerif-30" x="63.623047"/>
      <use xlink:href="#DejaVuSerif-30" x="127.246094"/>
      <use xlink:href="#DejaVuSerif-3a9" x="190.869141"/>
     </g>
    </g>
   </g>
   <g id="text_32">
    <g clip-path="url(#pdf6a0d8277)">
     <!-- $V_{S2}$ -->
     <g transform="translate(296.251 90.262266) scale(0.085 -0.085)">
      <use xlink:href="#DejaVuSans-Oblique-56" transform="translate(0 0.09375)"/>
      <use xlink:href="#DejaVuSans-Oblique-53" transform="translate(68.408203 -16.3125) scale(0.7)"/>
      <use xlink:href="#DejaVuSans-32" transform="translate(112.841797 -16.3125) scale(0.7)"/>
     </g>
    </g>
   </g>
   <g id="text_33">
    <g clip-path="url(#pdf6a0d8277)">
     <!-- 9V -->
     <g style="fill: #0000ff" transform="translate(298.389281 98.488672) scale(0.085 -0.085)">
      <use xlink:href="#DejaVuSerif-39"/>
      <use xlink:href="#DejaVuSerif-56" x="63.623047"/>
     </g>
    </g>
   </g>
   <g id="text_34">
    <g clip-path="url(#pdf6a0d8277)">
     <!-- $I_1$ -->
     <g style="fill: #008000" transform="translate(99.3485 98.200469) scale(0.085 -0.085)">
      <use xlink:href="#DejaVuSans-Oblique-49" transform="translate(0 0.09375)"/>
      <use xlink:href="#DejaVuSans-31" transform="translate(29.492188 -16.3125) scale(0.7)"/>
     </g>
    </g>
   </g>
   <g id="text_35">
    <g clip-path="url(#pdf6a0d8277)">
     <!-- $I_2$ -->
     <g style="fill: #008000" transform="translate(187.3235 97.052969) scale(0.085 -0.085)">
      <use xlink:href="#DejaVuSans-Oblique-49" transform="translate(0 0.09375)"/>
      <use xlink:href="#DejaVuSans-32" transform="translate(29.492188 -16.3125) scale(0.7)"/>
     </g>
    </g>
   </g>
   <g id="text_36">
    <g clip-path="url(#pdf6a0d8277)">
     <!-- $I_3$ -->
     <g style="fill: #008000" transform="translate(275.2985 98.200469) scale(0.085 -0.085)">
      <use xlink:href="#DejaVuSans-Oblique-49" transform="translate(0 0.09375)"/>
      <use xlink:href="#DejaVuSans-33" transform="translate(29.492188 -16.3125) scale(0.7)"/>
     </g>
    </g>
   </g>
   <g id="patch_18">
    <path d="M 52.896 48.425 
C 53.504641 48.425 54.088436 48.183184 54.51881 47.75281 
C 54.949184 47.322436 55.191 46.738641 55.191 46.13 
C 55.191 45.521359 54.949184 44.937564 54.51881 44.50719 
C 54.088436 44.076816 53.504641 43.835 52.896 43.835 
C 52.287359 43.835 51.703564 44.076816 51.27319 44.50719 
C 50.842816 44.937564 50.601 45.521359 50.601 46.13 
C 50.601 46.738641 50.842816 47.322436 51.27319 47.75281 
C 51.703564 48.183184 52.287359 48.425 52.896 48.425 
z
" clip-path="url(#pdf6a0d8277)" style="stroke: #000000; stroke-width: 2; stroke-linejoin: miter"/>
   </g>
   <g id="text_37">
    <g clip-path="url(#pdf6a0d8277)">
     <!-- $V_1$ -->
     <g style="fill: #ff0000" transform="translate(47.966 39.007266) scale(0.085 -0.085)">
      <use xlink:href="#DejaVuSans-Oblique-56" transform="translate(0 0.09375)"/>
      <use xlink:href="#DejaVuSans-31" transform="translate(68.408203 -16.3125) scale(0.7)"/>
     </g>
    </g>
   </g>
   <g id="patch_19">
    <path d="M 144.696 48.425 
C 145.304641 48.425 145.888436 48.183184 146.31881 47.75281 
C 146.749184 47.322436 146.991 46.738641 146.991 46.13 
C 146.991 45.521359 146.749184 44.937564 146.31881 44.50719 
C 145.888436 44.076816 145.304641 43.835 144.696 43.835 
C 144.087359 43.835 143.503564 44.076816 143.07319 44.50719 
C 142.642816 44.937564 142.401 45.521359 142.401 46.13 
C 142.401 46.738641 142.642816 47.322436 143.07319 47.75281 
C 143.503564 48.183184 144.087359 48.425 144.696 48.425 
z
" clip-path="url(#pdf6a0d8277)" style="stroke: #000000; stroke-width: 2; stroke-linejoin: miter"/>
   </g>
   <g id="text_38">
    <g clip-path="url(#pdf6a0d8277)">
     <!-- $V_2$ -->
     <g style="fill: #ff0000" transform="translate(139.766 39.007266) scale(0.085 -0.085)">
      <use xlink:href="#DejaVuSans-Oblique-56" transform="translate(0 0.09375)"/>
      <use xlink:href="#DejaVuSans-32" transform="translate(68.408203 -16.3125) scale(0.7)"/>
     </g>
    </g>
   </g>
   <g id="patch_20">
    <path d="M 236.496 48.425 
C 237.104641 48.425 237.688436 48.183184 238.11881 47.75281 
C 238.549184 47.322436 238.791 46.738641 238.791 46.13 
C 238.791 45.521359 238.549184 44.937564 238.11881 44.50719 
C 237.688436 44.076816 237.104641 43.835 236.496 43.835 
C 235.887359 43.835 235.303564 44.076816 234.87319 44.50719 
C 234.442816 44.937564 234.201 45.521359 234.201 46.13 
C 234.201 46.738641 234.442816 47.322436 234.87319 47.75281 
C 235.303564 48.183184 235.887359 48.425 236.496 48.425 
z
" clip-path="url(#pdf6a0d8277)" style="stroke: #000000; stroke-width: 2; stroke-linejoin: miter"/>
   </g>
   <g id="text_39">
    <g clip-path="url(#pdf6a0d8277)">
     <!-- $V_3$ -->
     <g style="fill: #ff0000" transform="translate(231.566 39.007266) scale(0.085 -0.085)">
      <use xlink:href="#DejaVuSans-Oblique-56" transform="translate(0 0.09375)"/>
      <use xlink:href="#DejaVuSans-33" transform="translate(68.408203 -16.3125) scale(0.7)"/>
     </g>
    </g>
   </g>
   <g id="patch_21">
    <path d="M 190.596 140.225 
C 191.204641 140.225 191.788436 139.983184 192.21881 139.55281 
C 192.649184 139.122436 192.891 138.538641 192.891 137.93 
C 192.891 137.321359 192.649184 136.737564 192.21881 136.30719 
C 191.788436 135.876816 191.204641 135.635 190.596 135.635 
C 189.987359 135.635 189.403564 135.876816 188.97319 136.30719 
C 188.542816 136.737564 188.301 137.321359 188.301 137.93 
C 188.301 138.538641 188.542816 139.122436 188.97319 139.55281 
C 189.403564 139.983184 189.987359 140.225 190.596 140.225 
z
" clip-path="url(#pdf6a0d8277)" style="stroke: #000000; stroke-width: 2; stroke-linejoin: miter"/>
   </g>
   <g id="text_40">
    <g clip-path="url(#pdf6a0d8277)">
     <!-- $V_0$ -->
     <g transform="translate(185.666 130.807266) scale(0.085 -0.085)">
      <defs>
       <path id="DejaVuSans-30" d="M 2034 4250 
Q 1547 4250 1301 3770 
Q 1056 3291 1056 2328 
Q 1056 1369 1301 889 
Q 1547 409 2034 409 
Q 2525 409 2770 889 
Q 3016 1369 3016 2328 
Q 3016 3291 2770 3770 
Q 2525 4250 2034 4250 
z
M 2034 4750 
Q 2819 4750 3233 4129 
Q 3647 3509 3647 2328 
Q 3647 1150 3233 529 
Q 2819 -91 2034 -91 
Q 1250 -91 836 529 
Q 422 1150 422 2328 
Q 422 3509 836 4129 
Q 1250 4750 2034 4750 
z
" transform="scale(0.015625)"/>
      </defs>
      <use xlink:href="#DejaVuSans-Oblique-56" transform="translate(0 0.09375)"/>
      <use xlink:href="#DejaVuSans-30" transform="translate(68.408203 -16.3125) scale(0.7)"/>
     </g>
    </g>
   </g>
   <g id="patch_22">
    <path d="M 328.296 48.425 
C 328.904641 48.425 329.488436 48.183184 329.91881 47.75281 
C 330.349184 47.322436 330.591 46.738641 330.591 46.13 
C 330.591 45.521359 330.349184 44.937564 329.91881 44.50719 
C 329.488436 44.076816 328.904641 43.835 328.296 43.835 
C 327.687359 43.835 327.103564 44.076816 326.67319 44.50719 
C 326.242816 44.937564 326.001 45.521359 326.001 46.13 
C 326.001 46.738641 326.242816 47.322436 326.67319 47.75281 
C 327.103564 48.183184 327.687359 48.425 328.296 48.425 
z
" clip-path="url(#pdf6a0d8277)" style="stroke: #000000; stroke-width: 2; stroke-linejoin: miter"/>
   </g>
   <g id="text_41">
    <g clip-path="url(#pdf6a0d8277)">
     <!-- $V_4$ -->
     <g style="fill: #ff0000" transform="translate(323.366 39.007266) scale(0.085 -0.085)">
      <use xlink:href="#DejaVuSans-Oblique-56" transform="translate(0 0.09375)"/>
      <use xlink:href="#DejaVuSans-34" transform="translate(68.408203 -16.3125) scale(0.7)"/>
     </g>
    </g>
   </g>
   <g id="patch_23">
    <path d="M 52.896 48.425 
C 53.504641 48.425 54.088436 48.183184 54.51881 47.75281 
C 54.949184 47.322436 55.191 46.738641 55.191 46.13 
C 55.191 45.521359 54.949184 44.937564 54.51881 44.50719 
C 54.088436 44.076816 53.504641 43.835 52.896 43.835 
C 52.287359 43.835 51.703564 44.076816 51.27319 44.50719 
C 50.842816 44.937564 50.601 45.521359 50.601 46.13 
C 50.601 46.738641 50.842816 47.322436 51.27319 47.75281 
C 51.703564 48.183184 52.287359 48.425 52.896 48.425 
z
" clip-path="url(#pdf6a0d8277)" style="stroke: #000000; stroke-width: 2; stroke-linejoin: miter"/>
   </g>
   <g id="text_42">
    <g clip-path="url(#pdf6a0d8277)">
     <!-- $V_1$ -->
     <g style="fill: #ff0000" transform="translate(47.966 39.007266) scale(0.085 -0.085)">
      <use xlink:href="#DejaVuSans-Oblique-56" transform="translate(0 0.09375)"/>
      <use xlink:href="#DejaVuSans-31" transform="translate(68.408203 -16.3125) scale(0.7)"/>
     </g>
    </g>
   </g>
   <g id="patch_24">
    <path d="M 144.696 48.425 
C 145.304641 48.425 145.888436 48.183184 146.31881 47.75281 
C 146.749184 47.322436 146.991 46.738641 146.991 46.13 
C 146.991 45.521359 146.749184 44.937564 146.31881 44.50719 
C 145.888436 44.076816 145.304641 43.835 144.696 43.835 
C 144.087359 43.835 143.503564 44.076816 143.07319 44.50719 
C 142.642816 44.937564 142.401 45.521359 142.401 46.13 
C 142.401 46.738641 142.642816 47.322436 143.07319 47.75281 
C 143.503564 48.183184 144.087359 48.425 144.696 48.425 
z
" clip-path="url(#pdf6a0d8277)" style="stroke: #000000; stroke-width: 2; stroke-linejoin: miter"/>
   </g>
   <g id="text_43">
    <g clip-path="url(#pdf6a0d8277)">
     <!-- $V_2$ -->
     <g style="fill: #ff0000" transform="translate(139.766 39.007266) scale(0.085 -0.085)">
      <use xlink:href="#DejaVuSans-Oblique-56" transform="translate(0 0.09375)"/>
      <use xlink:href="#DejaVuSans-32" transform="translate(68.408203 -16.3125) scale(0.7)"/>
     </g>
    </g>
   </g>
   <g id="patch_25">
    <path d="M 236.496 48.425 
C 237.104641 48.425 237.688436 48.183184 238.11881 47.75281 
C 238.549184 47.322436 238.791 46.738641 238.791 46.13 
C 238.791 45.521359 238.549184 44.937564 238.11881 44.50719 
C 237.688436 44.076816 237.104641 43.835 236.496 43.835 
C 235.887359 43.835 235.303564 44.076816 234.87319 44.50719 
C 234.442816 44.937564 234.201 45.521359 234.201 46.13 
C 234.201 46.738641 234.442816 47.322436 234.87319 47.75281 
C 235.303564 48.183184 235.887359 48.425 236.496 48.425 
z
" clip-path="url(#pdf6a0d8277)" style="stroke: #000000; stroke-width: 2; stroke-linejoin: miter"/>
   </g>
   <g id="text_44">
    <g clip-path="url(#pdf6a0d8277)">
     <!-- $V_3$ -->
     <g style="fill: #ff0000" transform="translate(231.566 39.007266) scale(0.085 -0.085)">
      <use xlink:href="#DejaVuSans-Oblique-56" transform="translate(0 0.09375)"/>
      <use xlink:href="#DejaVuSans-33" transform="translate(68.408203 -16.3125) scale(0.7)"/>
     </g>
    </g>
   </g>
   <g id="patch_26">
    <path d="M 190.596 140.225 
C 191.204641 140.225 191.788436 139.983184 192.21881 139.55281 
C 192.649184 139.122436 192.891 138.538641 192.891 137.93 
C 192.891 137.321359 192.649184 136.737564 192.21881 136.30719 
C 191.788436 135.876816 191.204641 135.635 190.596 135.635 
C 189.987359 135.635 189.403564 135.876816 188.97319 136.30719 
C 188.542816 136.737564 188.301 137.321359 188.301 137.93 
C 188.301 138.538641 188.542816 139.122436 188.97319 139.55281 
C 189.403564 139.983184 189.987359 140.225 190.596 140.225 
z
" clip-path="url(#pdf6a0d8277)" style="stroke: #000000; stroke-width: 2; stroke-linejoin: miter"/>
   </g>
   <g id="text_45">
    <g clip-path="url(#pdf6a0d8277)">
     <!-- $V_0$ -->
     <g transform="translate(185.666 130.807266) scale(0.085 -0.085)">
      <use xlink:href="#DejaVuSans-Oblique-56" transform="translate(0 0.09375)"/>
      <use xlink:href="#DejaVuSans-30" transform="translate(68.408203 -16.3125) scale(0.7)"/>
     </g>
    </g>
   </g>
   <g id="patch_27">
    <path d="M 328.296 48.425 
C 328.904641 48.425 329.488436 48.183184 329.91881 47.75281 
C 330.349184 47.322436 330.591 46.738641 330.591 46.13 
C 330.591 45.521359 330.349184 44.937564 329.91881 44.50719 
C 329.488436 44.076816 328.904641 43.835 328.296 43.835 
C 327.687359 43.835 327.103564 44.076816 326.67319 44.50719 
C 326.242816 44.937564 326.001 45.521359 326.001 46.13 
C 326.001 46.738641 326.242816 47.322436 326.67319 47.75281 
C 327.103564 48.183184 327.687359 48.425 328.296 48.425 
z
" clip-path="url(#pdf6a0d8277)" style="stroke: #000000; stroke-width: 2; stroke-linejoin: miter"/>
   </g>
   <g id="text_46">
    <g clip-path="url(#pdf6a0d8277)">
     <!-- $V_4$ -->
     <g style="fill: #ff0000" transform="translate(323.366 39.007266) scale(0.085 -0.085)">
      <use xlink:href="#DejaVuSans-Oblique-56" transform="translate(0 0.09375)"/>
      <use xlink:href="#DejaVuSans-34" transform="translate(68.408203 -16.3125) scale(0.7)"/>
     </g>
    </g>
   </g>
  </g>
 </g>
 <defs>
  <clipPath id="pdf6a0d8277">
   <rect x="7.2" y="7.2" width="341.1645" height="169.354"/>
  </clipPath>
 </defs>
</svg>
